<mxfile host="app.diagrams.net" agent="Mozilla/5.0 (Macintosh; Intel Mac OS X 10_15_7) AppleWebKit/537.36 (KHTML, like Gecko) Chrome/140.0.0.0 Safari/537.36" version="28.2.4">
  <diagram name="Page-1" id="x7j5ftF2kZgxxPFu498y">
    <mxGraphModel dx="765359" dy="572869" grid="1" gridSize="10" guides="1" tooltips="1" connect="1" arrows="1" fold="1" page="1" pageScale="1" pageWidth="850" pageHeight="1100" math="0" shadow="0">
      <root>
        <mxCell id="i8YidBej93GlQsi5vQ-Y-0" />
        <mxCell id="i8YidBej93GlQsi5vQ-Y-1" parent="i8YidBej93GlQsi5vQ-Y-0" />
        <mxCell id="70BJgVgPfD_3oWofhxNv-0" value="50" style="group;textShadow=1;" vertex="1" connectable="0" parent="i8YidBej93GlQsi5vQ-Y-1">
          <mxGeometry x="-350380" y="-175870" width="2660" height="850" as="geometry" />
        </mxCell>
        <mxCell id="70BJgVgPfD_3oWofhxNv-1" value="" style="rounded=0;whiteSpace=wrap;html=1;" vertex="1" parent="70BJgVgPfD_3oWofhxNv-0">
          <mxGeometry width="2660" height="850" as="geometry" />
        </mxCell>
        <mxCell id="70BJgVgPfD_3oWofhxNv-2" value="Source Files&#xa;(NYC Taxi Parquet)" style="shape=process;whiteSpace=wrap;rounded=1;fillColor=#fff2cc;strokeColor=#d6b656;fontSize=12" vertex="1" parent="70BJgVgPfD_3oWofhxNv-0">
          <mxGeometry x="140" y="380" width="180" height="70" as="geometry" />
        </mxCell>
        <mxCell id="70BJgVgPfD_3oWofhxNv-3" value="&#xa;&#xa;&#xa;ADLS Gen2 (raw)&#xa;raw/&lt;dataset&gt;/ingest_date=YYYY-MM-DD/" style="shape=folder;tabWidth=60;tabHeight=20;rounded=1;whiteSpace=wrap;fillColor=#dae8fc;strokeColor=#6c8ebf;fontSize=12" vertex="1" parent="70BJgVgPfD_3oWofhxNv-0">
          <mxGeometry x="360" y="360" width="220" height="100" as="geometry" />
        </mxCell>
        <mxCell id="70BJgVgPfD_3oWofhxNv-4" value="" style="edgeStyle=orthogonalEdgeStyle;rounded=0;orthogonalLoop=1;jettySize=auto;html=1;" edge="1" parent="70BJgVgPfD_3oWofhxNv-0" source="70BJgVgPfD_3oWofhxNv-5" target="70BJgVgPfD_3oWofhxNv-7">
          <mxGeometry relative="1" as="geometry" />
        </mxCell>
        <mxCell id="70BJgVgPfD_3oWofhxNv-5" value="ADF: Copy → Staging" style="shape=card;whiteSpace=wrap;rounded=1;fillColor=#e1d5e7;strokeColor=#9673a6;fontSize=12" vertex="1" parent="70BJgVgPfD_3oWofhxNv-0">
          <mxGeometry x="620" y="370" width="170" height="80" as="geometry" />
        </mxCell>
        <mxCell id="70BJgVgPfD_3oWofhxNv-6" value="" style="edgeStyle=orthogonalEdgeStyle;rounded=0;orthogonalLoop=1;jettySize=auto;html=1;" edge="1" parent="70BJgVgPfD_3oWofhxNv-0" source="70BJgVgPfD_3oWofhxNv-7" target="70BJgVgPfD_3oWofhxNv-9">
          <mxGeometry relative="1" as="geometry" />
        </mxCell>
        <mxCell id="70BJgVgPfD_3oWofhxNv-7" value="Synapse (staging)&#xa;stg.trip + lineage cols&#xa;HEAP, ROUND_ROBIN" style="shape=rectangle;rounded=1;whiteSpace=wrap;fillColor=#d5e8d4;strokeColor=#82b366;fontSize=12" vertex="1" parent="70BJgVgPfD_3oWofhxNv-0">
          <mxGeometry x="830" y="360" width="220" height="100" as="geometry" />
        </mxCell>
        <mxCell id="70BJgVgPfD_3oWofhxNv-8" value="" style="edgeStyle=orthogonalEdgeStyle;rounded=0;orthogonalLoop=1;jettySize=auto;html=1;" edge="1" parent="70BJgVgPfD_3oWofhxNv-0" source="70BJgVgPfD_3oWofhxNv-9" target="70BJgVgPfD_3oWofhxNv-12">
          <mxGeometry relative="1" as="geometry" />
        </mxCell>
        <mxCell id="70BJgVgPfD_3oWofhxNv-9" value="ADF: Stg → Core (Script)&#xa;CTAS slice, Quarantine err.trip, Dedupe, Core DQ" style="shape=card;whiteSpace=wrap;rounded=1;fillColor=#e1d5e7;strokeColor=#9673a6;fontSize=12" vertex="1" parent="70BJgVgPfD_3oWofhxNv-0">
          <mxGeometry x="1090" y="370" width="230" height="80" as="geometry" />
        </mxCell>
        <mxCell id="70BJgVgPfD_3oWofhxNv-10" value="" style="edgeStyle=orthogonalEdgeStyle;rounded=0;orthogonalLoop=1;jettySize=auto;html=1;" edge="1" parent="70BJgVgPfD_3oWofhxNv-0" source="70BJgVgPfD_3oWofhxNv-12" target="70BJgVgPfD_3oWofhxNv-14">
          <mxGeometry relative="1" as="geometry" />
        </mxCell>
        <mxCell id="70BJgVgPfD_3oWofhxNv-11" value="" style="edgeStyle=orthogonalEdgeStyle;rounded=0;orthogonalLoop=1;jettySize=auto;html=1;" edge="1" parent="70BJgVgPfD_3oWofhxNv-0" source="70BJgVgPfD_3oWofhxNv-12" target="70BJgVgPfD_3oWofhxNv-18">
          <mxGeometry relative="1" as="geometry" />
        </mxCell>
        <mxCell id="70BJgVgPfD_3oWofhxNv-65" style="edgeStyle=orthogonalEdgeStyle;rounded=0;orthogonalLoop=1;jettySize=auto;html=1;exitX=0.25;exitY=1;exitDx=0;exitDy=0;dashed=1;" edge="1" parent="70BJgVgPfD_3oWofhxNv-0" source="70BJgVgPfD_3oWofhxNv-12">
          <mxGeometry relative="1" as="geometry">
            <mxPoint x="1370" y="410.37" as="sourcePoint" />
            <mxPoint x="1410" y="570" as="targetPoint" />
            <Array as="points">
              <mxPoint x="1410" y="460" />
            </Array>
          </mxGeometry>
        </mxCell>
        <mxCell id="70BJgVgPfD_3oWofhxNv-12" value="Synapse (core)&#xa;core.trip_clean (CCI, ROUND_ROBIN)" style="shape=rectangle;rounded=1;whiteSpace=wrap;fillColor=#d5e8d4;strokeColor=#82b366;fontSize=12" vertex="1" parent="70BJgVgPfD_3oWofhxNv-0">
          <mxGeometry x="1350" y="360" width="260" height="100" as="geometry" />
        </mxCell>
        <mxCell id="70BJgVgPfD_3oWofhxNv-13" value="" style="edgeStyle=orthogonalEdgeStyle;rounded=0;orthogonalLoop=1;jettySize=auto;html=1;" edge="1" parent="70BJgVgPfD_3oWofhxNv-0" source="70BJgVgPfD_3oWofhxNv-14" target="70BJgVgPfD_3oWofhxNv-16">
          <mxGeometry relative="1" as="geometry" />
        </mxCell>
        <mxCell id="70BJgVgPfD_3oWofhxNv-14" value="ADF: Core → Modeling (Script)&#xa;Upsert dims, Load fact, Post-load stats, Model DQ" style="shape=card;whiteSpace=wrap;rounded=1;fillColor=#e1d5e7;strokeColor=#9673a6;fontSize=12" vertex="1" parent="70BJgVgPfD_3oWofhxNv-0">
          <mxGeometry x="1640" y="370" width="260" height="80" as="geometry" />
        </mxCell>
        <mxCell id="70BJgVgPfD_3oWofhxNv-15" value="" style="edgeStyle=orthogonalEdgeStyle;rounded=0;orthogonalLoop=1;jettySize=auto;html=1;" edge="1" parent="70BJgVgPfD_3oWofhxNv-0" source="70BJgVgPfD_3oWofhxNv-16" target="70BJgVgPfD_3oWofhxNv-17">
          <mxGeometry relative="1" as="geometry" />
        </mxCell>
        <mxCell id="70BJgVgPfD_3oWofhxNv-16" value="Synapse (modeling / star)&#xa;mdl.dim_* (REPLICATE)&#xa;mdl.fact_trip (CCI, HASH(trip_id))" style="shape=rectangle;rounded=1;whiteSpace=wrap;fillColor=#d5e8d4;strokeColor=#82b366;fontSize=12" vertex="1" parent="70BJgVgPfD_3oWofhxNv-0">
          <mxGeometry x="1930" y="340" width="290" height="140" as="geometry" />
        </mxCell>
        <mxCell id="70BJgVgPfD_3oWofhxNv-17" value="Power BI (DirectQuery)&#xa;mdl.vw_fact_trip_bi" style="shape=process;whiteSpace=wrap;rounded=1;fillColor=#ffe6cc;strokeColor=#cc6600;fontSize=12" vertex="1" parent="70BJgVgPfD_3oWofhxNv-0">
          <mxGeometry x="2250" y="365" width="220" height="90" as="geometry" />
        </mxCell>
        <mxCell id="70BJgVgPfD_3oWofhxNv-18" value="Quarantine&#xa;err.trip" style="shape=note;whiteSpace=wrap;rounded=1;fillColor=#f8cecc;strokeColor=#b85450;fontSize=12" vertex="1" parent="70BJgVgPfD_3oWofhxNv-0">
          <mxGeometry x="1484.59" y="220" width="120" height="70" as="geometry" />
        </mxCell>
        <mxCell id="70BJgVgPfD_3oWofhxNv-19" value="Observability&#xa;ops.run_log / ops.dq_result / ops.run_metrics" style="shape=process;whiteSpace=wrap;rounded=1;fillColor=#f5f5f5;strokeColor=#666666;fontSize=12" vertex="1" parent="70BJgVgPfD_3oWofhxNv-0">
          <mxGeometry x="1620" y="590" width="250" height="80" as="geometry" />
        </mxCell>
        <mxCell id="70BJgVgPfD_3oWofhxNv-20" style="edgeStyle=orthogonalEdgeStyle;rounded=0;orthogonalLoop=1;jettySize=auto;html=1;exitX=0.5;exitY=1;exitDx=0;exitDy=0;" edge="1" parent="70BJgVgPfD_3oWofhxNv-0" source="70BJgVgPfD_3oWofhxNv-22" target="70BJgVgPfD_3oWofhxNv-5">
          <mxGeometry relative="1" as="geometry" />
        </mxCell>
        <mxCell id="70BJgVgPfD_3oWofhxNv-21" style="edgeStyle=orthogonalEdgeStyle;rounded=0;orthogonalLoop=1;jettySize=auto;html=1;exitX=0.5;exitY=1;exitDx=0;exitDy=0;" edge="1" parent="70BJgVgPfD_3oWofhxNv-0" source="70BJgVgPfD_3oWofhxNv-22" target="70BJgVgPfD_3oWofhxNv-9">
          <mxGeometry relative="1" as="geometry" />
        </mxCell>
        <mxCell id="70BJgVgPfD_3oWofhxNv-22" value="Orchestrator&#xa;pl_daily_nyctaxi (run_date)&#xa;single daily trigger; backfill by date" style="shape=hexagon;perimeter=hexagonPerimeter;whiteSpace=wrap;rounded=0;fillColor=#fff2cc;strokeColor=#d6b656;fontSize=12" vertex="1" parent="70BJgVgPfD_3oWofhxNv-0">
          <mxGeometry x="1120" y="210" width="260" height="100" as="geometry" />
        </mxCell>
        <mxCell id="70BJgVgPfD_3oWofhxNv-25" value="Security: MI + RBAC&#xa;(Key Vault &amp; Private Endpoints in prod)" style="shape=note;whiteSpace=wrap;rounded=1;fillColor=#fff2cc;strokeColor=#d6b656;fontSize=12" vertex="1" parent="70BJgVgPfD_3oWofhxNv-0">
          <mxGeometry x="360" y="280" width="260" height="70" as="geometry" />
        </mxCell>
        <mxCell id="70BJgVgPfD_3oWofhxNv-26" style="endArrow=block;strokeColor=#6c8ebf;strokeWidth=2" edge="1" parent="70BJgVgPfD_3oWofhxNv-0" source="70BJgVgPfD_3oWofhxNv-2" target="70BJgVgPfD_3oWofhxNv-3">
          <mxGeometry relative="1" as="geometry" />
        </mxCell>
        <mxCell id="70BJgVgPfD_3oWofhxNv-27" style="endArrow=block;strokeColor=#9673a6;strokeWidth=2" edge="1" parent="70BJgVgPfD_3oWofhxNv-0" source="70BJgVgPfD_3oWofhxNv-3" target="70BJgVgPfD_3oWofhxNv-5">
          <mxGeometry relative="1" as="geometry" />
        </mxCell>
        <mxCell id="70BJgVgPfD_3oWofhxNv-28" style="endArrow=block;strokeColor=#82b366;strokeWidth=2" edge="1" parent="70BJgVgPfD_3oWofhxNv-0" source="70BJgVgPfD_3oWofhxNv-5" target="70BJgVgPfD_3oWofhxNv-7" />
        <mxCell id="70BJgVgPfD_3oWofhxNv-29" style="endArrow=block;strokeColor=#9673a6;strokeWidth=2" edge="1" parent="70BJgVgPfD_3oWofhxNv-0" source="70BJgVgPfD_3oWofhxNv-7" target="70BJgVgPfD_3oWofhxNv-9" />
        <mxCell id="70BJgVgPfD_3oWofhxNv-30" style="endArrow=block;strokeColor=#82b366;strokeWidth=2" edge="1" parent="70BJgVgPfD_3oWofhxNv-0" source="70BJgVgPfD_3oWofhxNv-9" target="70BJgVgPfD_3oWofhxNv-12" />
        <mxCell id="70BJgVgPfD_3oWofhxNv-31" style="endArrow=block;strokeColor=#82b366;strokeWidth=2" edge="1" parent="70BJgVgPfD_3oWofhxNv-0" source="70BJgVgPfD_3oWofhxNv-14" target="70BJgVgPfD_3oWofhxNv-16" />
        <mxCell id="70BJgVgPfD_3oWofhxNv-32" style="endArrow=block;strokeColor=#9673a6;strokeWidth=2" edge="1" parent="70BJgVgPfD_3oWofhxNv-0" source="70BJgVgPfD_3oWofhxNv-12" target="70BJgVgPfD_3oWofhxNv-14" />
        <mxCell id="70BJgVgPfD_3oWofhxNv-33" style="endArrow=block;strokeColor=#cc6600;strokeWidth=2" edge="1" parent="70BJgVgPfD_3oWofhxNv-0" source="70BJgVgPfD_3oWofhxNv-16" target="70BJgVgPfD_3oWofhxNv-17" />
        <mxCell id="70BJgVgPfD_3oWofhxNv-34" style="dashed=1;endArrow=block;strokeColor=#666666;strokeWidth=1" edge="1" parent="70BJgVgPfD_3oWofhxNv-0" source="70BJgVgPfD_3oWofhxNv-7" target="70BJgVgPfD_3oWofhxNv-19" />
        <mxCell id="70BJgVgPfD_3oWofhxNv-35" style="dashed=1;endArrow=block;strokeColor=#666666;strokeWidth=1" edge="1" parent="70BJgVgPfD_3oWofhxNv-0" source="70BJgVgPfD_3oWofhxNv-12" target="70BJgVgPfD_3oWofhxNv-19" />
        <mxCell id="70BJgVgPfD_3oWofhxNv-36" style="dashed=1;endArrow=block;strokeColor=#666666;strokeWidth=1" edge="1" parent="70BJgVgPfD_3oWofhxNv-0" source="70BJgVgPfD_3oWofhxNv-16" target="70BJgVgPfD_3oWofhxNv-19" />
        <mxCell id="70BJgVgPfD_3oWofhxNv-37" style="endArrow=block;strokeColor=#d6b656;strokeWidth=2" edge="1" parent="70BJgVgPfD_3oWofhxNv-0" source="70BJgVgPfD_3oWofhxNv-22" target="70BJgVgPfD_3oWofhxNv-5" />
        <mxCell id="70BJgVgPfD_3oWofhxNv-38" style="endArrow=block;strokeColor=#d6b656;strokeWidth=2" edge="1" parent="70BJgVgPfD_3oWofhxNv-0" source="70BJgVgPfD_3oWofhxNv-22" target="70BJgVgPfD_3oWofhxNv-9" />
        <mxCell id="70BJgVgPfD_3oWofhxNv-39" style="endArrow=block;strokeColor=#d6b656;strokeWidth=2" edge="1" parent="70BJgVgPfD_3oWofhxNv-0" source="70BJgVgPfD_3oWofhxNv-22" target="70BJgVgPfD_3oWofhxNv-14" />
        <mxCell id="70BJgVgPfD_3oWofhxNv-40" style="endArrow=block;strokeColor=#b85450;strokeWidth=1" edge="1" parent="70BJgVgPfD_3oWofhxNv-0" source="70BJgVgPfD_3oWofhxNv-9" target="70BJgVgPfD_3oWofhxNv-18" />
        <mxCell id="70BJgVgPfD_3oWofhxNv-41" style="dashed=1;endArrow=block;strokeColor=#4fc3f7;strokeWidth=1" edge="1" parent="70BJgVgPfD_3oWofhxNv-0" source="70BJgVgPfD_3oWofhxNv-3" target="70BJgVgPfD_3oWofhxNv-23" />
        <mxCell id="70BJgVgPfD_3oWofhxNv-42" style="dashed=1;endArrow=block;strokeColor=#4fc3f7;strokeWidth=1" edge="1" parent="70BJgVgPfD_3oWofhxNv-0" source="70BJgVgPfD_3oWofhxNv-7" target="70BJgVgPfD_3oWofhxNv-23" />
        <mxCell id="70BJgVgPfD_3oWofhxNv-43" style="dashed=1;endArrow=block;strokeColor=#4fc3f7;strokeWidth=1" edge="1" parent="70BJgVgPfD_3oWofhxNv-0" source="70BJgVgPfD_3oWofhxNv-12" target="70BJgVgPfD_3oWofhxNv-23" />
        <mxCell id="70BJgVgPfD_3oWofhxNv-44" style="dashed=1;endArrow=block;strokeColor=#4fc3f7;strokeWidth=1" edge="1" parent="70BJgVgPfD_3oWofhxNv-0" source="70BJgVgPfD_3oWofhxNv-16" target="70BJgVgPfD_3oWofhxNv-23" />
        <mxCell id="70BJgVgPfD_3oWofhxNv-45" style="dashed=1;endArrow=block;strokeColor=#4fc3f7;strokeWidth=1" edge="1" parent="70BJgVgPfD_3oWofhxNv-0" source="70BJgVgPfD_3oWofhxNv-5" target="70BJgVgPfD_3oWofhxNv-24" />
        <mxCell id="70BJgVgPfD_3oWofhxNv-46" style="dashed=1;endArrow=block;strokeColor=#4fc3f7;strokeWidth=1" edge="1" parent="70BJgVgPfD_3oWofhxNv-0" source="70BJgVgPfD_3oWofhxNv-9" target="70BJgVgPfD_3oWofhxNv-24" />
        <mxCell id="70BJgVgPfD_3oWofhxNv-47" style="dashed=1;endArrow=block;strokeColor=#4fc3f7;strokeWidth=1" edge="1" parent="70BJgVgPfD_3oWofhxNv-0" source="70BJgVgPfD_3oWofhxNv-14" target="70BJgVgPfD_3oWofhxNv-24" />
        <mxCell id="70BJgVgPfD_3oWofhxNv-48" value="" style="image;aspect=fixed;html=1;points=[];align=center;fontSize=12;image=img/lib/azure2/storage/Data_Lake_Storage_Gen1.svg;" vertex="1" parent="70BJgVgPfD_3oWofhxNv-0">
          <mxGeometry x="540" y="388.12" width="27.38" height="22.25" as="geometry" />
        </mxCell>
        <mxCell id="70BJgVgPfD_3oWofhxNv-49" value="" style="image;aspect=fixed;html=1;points=[];align=center;fontSize=12;image=img/lib/azure2/databases/Data_Factory.svg;" vertex="1" parent="70BJgVgPfD_3oWofhxNv-0">
          <mxGeometry x="760" y="379" width="21" height="21" as="geometry" />
        </mxCell>
        <mxCell id="70BJgVgPfD_3oWofhxNv-50" value="" style="image;aspect=fixed;html=1;points=[];align=center;fontSize=12;image=img/lib/azure2/databases/Data_Factory.svg;" vertex="1" parent="70BJgVgPfD_3oWofhxNv-0">
          <mxGeometry x="1290" y="379" width="21" height="21" as="geometry" />
        </mxCell>
        <mxCell id="70BJgVgPfD_3oWofhxNv-51" value="" style="image;aspect=fixed;html=1;points=[];align=center;fontSize=12;image=img/lib/azure2/databases/Data_Factory.svg;" vertex="1" parent="70BJgVgPfD_3oWofhxNv-0">
          <mxGeometry x="1870" y="379" width="21" height="21" as="geometry" />
        </mxCell>
        <mxCell id="70BJgVgPfD_3oWofhxNv-52" value="" style="image;aspect=fixed;html=1;points=[];align=center;fontSize=12;image=img/lib/azure2/databases/Data_Factory.svg;" vertex="1" parent="70BJgVgPfD_3oWofhxNv-0">
          <mxGeometry x="1299" y="220" width="21" height="21" as="geometry" />
        </mxCell>
        <mxCell id="70BJgVgPfD_3oWofhxNv-53" value="&lt;div&gt;&lt;div&gt;&lt;br&gt;&lt;/div&gt;&lt;/div&gt;" style="image;aspect=fixed;html=1;points=[];align=center;fontSize=12;image=img/lib/azure2/analytics/Azure_Synapse_Analytics.svg;" vertex="1" parent="70BJgVgPfD_3oWofhxNv-0">
          <mxGeometry x="1020" y="365" width="24.59" height="28.28" as="geometry" />
        </mxCell>
        <mxCell id="70BJgVgPfD_3oWofhxNv-54" value="&lt;div&gt;&lt;div&gt;&lt;br&gt;&lt;/div&gt;&lt;/div&gt;" style="image;aspect=fixed;html=1;points=[];align=center;fontSize=12;image=img/lib/azure2/analytics/Azure_Synapse_Analytics.svg;" vertex="1" parent="70BJgVgPfD_3oWofhxNv-0">
          <mxGeometry x="1580" y="365" width="24.59" height="28.28" as="geometry" />
        </mxCell>
        <mxCell id="70BJgVgPfD_3oWofhxNv-55" value="&lt;div&gt;&lt;div&gt;&lt;br&gt;&lt;/div&gt;&lt;/div&gt;" style="image;aspect=fixed;html=1;points=[];align=center;fontSize=12;image=img/lib/azure2/analytics/Azure_Synapse_Analytics.svg;" vertex="1" parent="70BJgVgPfD_3oWofhxNv-0">
          <mxGeometry x="2190" y="350" width="24.59" height="28.28" as="geometry" />
        </mxCell>
        <mxCell id="70BJgVgPfD_3oWofhxNv-56" value="" style="image;aspect=fixed;html=1;points=[];align=center;fontSize=12;image=img/lib/azure2/analytics/Power_BI_Embedded.svg;" vertex="1" parent="70BJgVgPfD_3oWofhxNv-0">
          <mxGeometry x="2420" y="370" width="21" height="28" as="geometry" />
        </mxCell>
        <mxCell id="70BJgVgPfD_3oWofhxNv-59" style="edgeStyle=orthogonalEdgeStyle;rounded=0;orthogonalLoop=1;jettySize=auto;html=1;exitX=0.5;exitY=1;exitDx=0;exitDy=0;entryX=0;entryY=0;entryDx=145;entryDy=0;entryPerimeter=0;" edge="1" parent="70BJgVgPfD_3oWofhxNv-0" source="70BJgVgPfD_3oWofhxNv-22" target="70BJgVgPfD_3oWofhxNv-14">
          <mxGeometry relative="1" as="geometry" />
        </mxCell>
        <mxCell id="70BJgVgPfD_3oWofhxNv-62" value="" style="group;dashed=1;" vertex="1" connectable="0" parent="70BJgVgPfD_3oWofhxNv-0">
          <mxGeometry x="1250" y="560" width="330" height="120" as="geometry" />
        </mxCell>
        <mxCell id="70BJgVgPfD_3oWofhxNv-24" value="Log Analytics&#xa;Alerts: pipeline failed runs, duration&#xa;Dashboards (optional)" style="shape=cloud;whiteSpace=wrap;rounded=1;fillColor=#e1f5fe;strokeColor=#4fc3f7;fontSize=12" vertex="1" parent="70BJgVgPfD_3oWofhxNv-62">
          <mxGeometry width="330" height="120" as="geometry" />
        </mxCell>
        <mxCell id="70BJgVgPfD_3oWofhxNv-57" value="" style="image;aspect=fixed;html=1;points=[];align=center;fontSize=12;image=img/lib/azure2/analytics/Log_Analytics_Workspaces.svg;" vertex="1" parent="70BJgVgPfD_3oWofhxNv-62">
          <mxGeometry x="251" y="54" width="34" height="34" as="geometry" />
        </mxCell>
        <mxCell id="70BJgVgPfD_3oWofhxNv-63" value="" style="group" vertex="1" connectable="0" parent="70BJgVgPfD_3oWofhxNv-0">
          <mxGeometry x="1970" y="570" width="380" height="140" as="geometry" />
        </mxCell>
        <mxCell id="70BJgVgPfD_3oWofhxNv-23" value="Microsoft Purview&#xa;ADLS resource sets (raw)&#xa;SQL scan (stg/core/mdl)&#xa;ADF lineage connection" style="shape=cloud;whiteSpace=wrap;rounded=1;fillColor=#e1f5fe;strokeColor=#4fc3f7;fontSize=12" vertex="1" parent="70BJgVgPfD_3oWofhxNv-63">
          <mxGeometry width="380" height="140" as="geometry" />
        </mxCell>
        <mxCell id="70BJgVgPfD_3oWofhxNv-58" value="" style="image;aspect=fixed;html=1;points=[];align=center;fontSize=12;image=img/lib/azure2/databases/Azure_Purview_Accounts.svg;" vertex="1" parent="70BJgVgPfD_3oWofhxNv-63">
          <mxGeometry x="278" y="60.819999999999936" width="44" height="27.18" as="geometry" />
        </mxCell>
        <mxCell id="70BJgVgPfD_3oWofhxNv-64" style="edgeStyle=orthogonalEdgeStyle;rounded=0;orthogonalLoop=1;jettySize=auto;html=1;exitX=0.5;exitY=1;exitDx=0;exitDy=0;entryX=0.485;entryY=0.1;entryDx=0;entryDy=0;entryPerimeter=0;dashed=1;" edge="1" parent="70BJgVgPfD_3oWofhxNv-0" source="70BJgVgPfD_3oWofhxNv-7" target="70BJgVgPfD_3oWofhxNv-24">
          <mxGeometry relative="1" as="geometry">
            <Array as="points">
              <mxPoint x="940" y="550" />
              <mxPoint x="1410" y="550" />
            </Array>
          </mxGeometry>
        </mxCell>
        <mxCell id="70BJgVgPfD_3oWofhxNv-66" style="edgeStyle=orthogonalEdgeStyle;rounded=0;orthogonalLoop=1;jettySize=auto;html=1;exitX=0.5;exitY=1;exitDx=0;exitDy=0;dashed=1;entryX=0.499;entryY=0.094;entryDx=0;entryDy=0;entryPerimeter=0;" edge="1" parent="70BJgVgPfD_3oWofhxNv-0">
          <mxGeometry relative="1" as="geometry">
            <mxPoint x="2070" y="480" as="sourcePoint" />
            <mxPoint x="1409.670000000042" y="571.2799999999697" as="targetPoint" />
            <Array as="points">
              <mxPoint x="2070" y="550" />
              <mxPoint x="1410" y="550" />
            </Array>
          </mxGeometry>
        </mxCell>
        <mxCell id="70BJgVgPfD_3oWofhxNv-67" style="edgeStyle=orthogonalEdgeStyle;rounded=0;orthogonalLoop=1;jettySize=auto;html=1;exitX=0.75;exitY=1;exitDx=0;exitDy=0;entryX=0.4;entryY=0.1;entryDx=0;entryDy=0;entryPerimeter=0;dashed=1;" edge="1" parent="70BJgVgPfD_3oWofhxNv-0" source="70BJgVgPfD_3oWofhxNv-16" target="70BJgVgPfD_3oWofhxNv-23">
          <mxGeometry relative="1" as="geometry">
            <Array as="points">
              <mxPoint x="2070" y="480" />
              <mxPoint x="2070" y="550" />
              <mxPoint x="2122" y="550" />
            </Array>
          </mxGeometry>
        </mxCell>
        <mxCell id="70BJgVgPfD_3oWofhxNv-68" style="edgeStyle=orthogonalEdgeStyle;rounded=0;orthogonalLoop=1;jettySize=auto;html=1;exitX=0.223;exitY=1.031;exitDx=0;exitDy=0;entryX=0.5;entryY=0;entryDx=0;entryDy=0;exitPerimeter=0;dashed=1;" edge="1" parent="70BJgVgPfD_3oWofhxNv-0" source="70BJgVgPfD_3oWofhxNv-12" target="70BJgVgPfD_3oWofhxNv-19">
          <mxGeometry relative="1" as="geometry">
            <Array as="points">
              <mxPoint x="1410" y="463" />
              <mxPoint x="1410" y="550" />
              <mxPoint x="1745" y="550" />
            </Array>
          </mxGeometry>
        </mxCell>
        <mxCell id="70BJgVgPfD_3oWofhxNv-70" value="&lt;strong data-start=&quot;1971&quot; data-end=&quot;1987&quot;&gt;Solid = data&lt;/strong&gt;&amp;nbsp;&lt;div&gt;&lt;strong data-start=&quot;1989&quot; data-end=&quot;2022&quot;&gt;Dashed = telemetry/governance&lt;/strong&gt;&lt;/div&gt;" style="text;html=1;align=left;verticalAlign=middle;whiteSpace=wrap;rounded=0;" vertex="1" parent="70BJgVgPfD_3oWofhxNv-0">
          <mxGeometry x="100" y="730" width="230" height="30" as="geometry" />
        </mxCell>
      </root>
    </mxGraphModel>
  </diagram>
</mxfile>
